# xmcd
#
# Track frame offsets:
#	150
#	14261
#	24688
#	39008
#	52306
#	64985
#	78963
#	91943
#	102816
#	116989
#	130745
#	143857
#	158370
#	170974
#	182439
#	196134
#	210027
#	223567
#	235551
#	247225
#
# Disc length: 3475 seconds
#
# Revision: 2
# Processed by: cddbd v1.5.2PL0 Copyright (c) Steve Scherf et al.
# Submitted via: audiograbber 1.83.01
#
DISCID=0a0d9114
DTITLE=John Lee Hooker - Blues [Raccolta]
DYEAR=2006
DGENRE=Blues
TTITLE0=I'm in the mood
TTITLE1=Baby please don't go
TTITLE2=Whistle done blown
TTITLE3=Come back baby
TTITLE4=Turnin' gray blues
TTITLE5=Bad boy
TTITLE6=Down child
TTITLE7=Gotta boogie
TTITLE8=Turn over a new leaf
TTITLE9=Tease me baby
TTITLE10=Lord what more can I do
TTITLE11=Women in m life
TTITLE12=Leave my wife alone
TTITLE13=Wheel and deal
TTITLE14=Time is marching
TTITLE15=Louise
TTITLE16=I met the grindin' man
TTITLE17=Throw this old dog a bone
TTITLE18=Queen Bee
TTITLE19=John Lee's house rent boogie
EXTD=Track titles in lower case
EXTT0=
EXTT1=
EXTT2=
EXTT3=
EXTT4=
EXTT5=
EXTT6=
EXTT7=
EXTT8=
EXTT9=
EXTT10=
EXTT11=
EXTT12=
EXTT13=
EXTT14=
EXTT15=
EXTT16=
EXTT17=
EXTT18=
EXTT19=
PLAYORDER=
